<svg id="Capa_1" enable-background="new 0 0 504.5 504.5" height="512" viewBox="0 0 504.5 504.5" width="512" xmlns="http://www.w3.org/2000/svg"><g><path d="m436.608 78.298-158.144 7.702-158.144-7.623v-46.867c0-17.402 14.107-31.51 31.51-31.51h253.269c17.402 0 31.51 14.107 31.51 31.51v46.788z" fill="#08a9f1"/><path d="m436.61 31.51v46.87l-27.62 7.62v-54.49c0-17.4-14.11-31.51-31.51-31.51h27.62c17.4 0 31.51 14.11 31.51 31.51z" fill="#0290cf"/><path d="m436.61 78.38v418.62h-44.82l-113.33-12.25-113.32 12.25h-44.82v-418.62c0-17.41 14.11-31.51 31.51-31.51h253.27c1.32 0 2.62.08 3.89.24 15.57 1.92 27.62 15.18 27.62 31.27z" fill="#deecf1"/><path d="m436.61 78.38v418.62h-27.62v-449.89c15.57 1.92 27.62 15.18 27.62 31.27z" fill="#a8d3d8"/><path d="m182.818 371.5h191.292c9.766 0 17.682 7.917 17.682 17.682v107.818h-226.656v-107.818c0-9.765 7.916-17.682 17.682-17.682z" fill="#62dbfb"/><path d="m391.79 389.18v107.82h-27.62v-107.82c0-9.76-7.91-17.68-17.68-17.68h27.62c9.77 0 17.68 7.92 17.68 17.68z" fill="#01d0fb"/><path d="m391.792 267.734c0 17.194-13.939 31.133-31.133 31.133h-82.196l-54.042 33.6c-4.159 2.586-9.54-.405-9.54-5.302v-22.54c0-3.18-2.578-5.758-5.758-5.758h-12.856c-17.194 0-31.133-13.939-31.133-31.133 0-17.194 13.939-31.133 31.133-31.133h164.391c17.195 0 31.134 13.939 31.134 31.133z" fill="#62dbfb"/><path d="m252.494 298.87h25.966l-54.04 33.598c-4.159 2.586-9.54-.405-9.54-5.302v-5.936l34.574-21.492c.913-.567 1.965-.868 3.04-.868z" fill="#01d0fb"/><path d="m391.79 267.73c0 17.2-13.94 31.14-31.13 31.14h-27.62c17.2 0 31.13-13.94 31.13-31.14 0-17.19-13.93-31.13-31.13-31.13h27.62c17.19 0 31.13 13.94 31.13 31.13z" fill="#01d0fb"/><path d="m391.792 125.161c0 17.194-13.939 31.133-31.133 31.133h-11.474c-3.943 0-7.14 3.197-7.14 7.14v21.157c0 4.897-5.381 7.888-9.54 5.302l-54.042-33.6h-82.195c-17.194 0-31.133-13.939-31.133-31.133 0-17.194 13.939-31.133 31.133-31.133h164.391c17.194.001 31.133 13.94 31.133 31.134z" fill="#a2e62e"/><path d="m391.778 126.041c-.469 16.954-14.807 30.249-31.767 30.249h-10.821c-3.943 0-7.14 3.197-7.14 7.14v21.157c0 4.897-5.381 7.888-9.54 5.302l-18.08-11.24v-15.22c0-3.943 3.197-7.14 7.14-7.14h10.823c16.959 0 31.296-13.295 31.765-30.248.487-17.593-13.624-32.012-31.118-32.012h27.62c17.483.001 31.604 14.42 31.118 32.012z" fill="#97d729"/><g><path d="m481.048 504.5h-405.169c-4.143 0-7.5-3.357-7.5-7.5s3.357-7.5 7.5-7.5h405.169c4.143 0 7.5 3.357 7.5 7.5s-3.357 7.5-7.5 7.5z" fill="#0290cf"/></g><g><path d="m294.354 133.362h-98.339c-4.143 0-7.5-3.357-7.5-7.5s3.357-7.5 7.5-7.5h98.339c4.143 0 7.5 3.357 7.5 7.5s-3.358 7.5-7.5 7.5z" fill="#deecf1"/></g><g><path d="m250.846 275.02h-54.831c-4.143 0-7.5-3.357-7.5-7.5s3.357-7.5 7.5-7.5h54.831c4.143 0 7.5 3.357 7.5 7.5s-3.358 7.5-7.5 7.5z" fill="#deecf1"/></g><g><path d="m360.183 275.02h-76.396c-4.143 0-7.5-3.357-7.5-7.5s3.357-7.5 7.5-7.5h76.396c4.143 0 7.5 3.357 7.5 7.5s-3.358 7.5-7.5 7.5z" fill="#deecf1"/></g><g><path d="m360.183 133.362h-36.318c-4.143 0-7.5-3.357-7.5-7.5s3.357-7.5 7.5-7.5h36.318c4.143 0 7.5 3.357 7.5 7.5s-3.358 7.5-7.5 7.5z" fill="#deecf1"/></g><g><path d="m341.038 448.5h-123.671c-4.143 0-7.5-3.357-7.5-7.5s3.357-7.5 7.5-7.5h123.671c4.143 0 7.5 3.357 7.5 7.5s-3.357 7.5-7.5 7.5z" fill="#deecf1"/></g><g><path d="m341.038 419.827h-117.982c-4.143 0-7.5-3.357-7.5-7.5s3.357-7.5 7.5-7.5h117.982c4.143 0 7.5 3.357 7.5 7.5s-3.357 7.5-7.5 7.5z" fill="#deecf1"/></g><g><path d="m296.646 477.173h-79.278c-4.143 0-7.5-3.357-7.5-7.5s3.357-7.5 7.5-7.5h79.278c4.143 0 7.5 3.357 7.5 7.5s-3.358 7.5-7.5 7.5z" fill="#deecf1"/></g><path d="m44.624 393.195 5.542 28.672-5.542 28.672c-15.839 0-28.672-12.834-28.672-28.672s12.834-28.672 28.672-28.672z" fill="#8ebac5"/><path d="m196.015 393.195-5.742 30.38 5.742 26.965c15.839 0 28.672-12.834 28.672-28.672s-12.833-28.673-28.672-28.673z" fill="#8ebac5"/><g><path d="m120.32 330c-4.143 0-7.5-4.233-7.5-9.457v-29.42c0-5.223 3.357-9.457 7.5-9.457s7.5 4.233 7.5 9.457v29.42c0 5.224-3.357 9.457-7.5 9.457z" fill="#62dbfb"/></g><path d="m187.833 416.167 8.177 24.831v10.062c0 11.84-9.59 21.44-21.43 21.44h-108.52c-11.84 0-21.44-9.6-21.44-21.44v-10.062l8.88-24.831-8.26-32.667c4.76-37.23 36.56-66 75.08-66 20.9 0 39.82 8.47 53.52 22.17 11.55 11.55 19.38 26.81 21.55 43.83z" fill="#08a9f1"/><path d="m187.833 416.167 8.177 24.831v10.062c0 11.84-9.59 21.44-21.43 21.44h-27c11.84 0 21.43-9.6 21.43-21.44v-57.86c0-3.29-.21-6.52-.62-9.7-2.17-17.02-10-32.28-21.55-43.83-10.68-10.68-24.52-18.18-40-20.97 4.37-.79 8.88-1.2 13.48-1.2 20.9 0 39.82 8.47 53.52 22.17 11.55 11.55 19.38 26.81 21.55 43.83z" fill="#0290cf"/><path d="m196.01 393.2v47.8h-151.39v-47.8c0-3.29.21-6.52.62-9.7h150.15c.41 3.18.62 6.41.62 9.7z" fill="#deecf1"/><path d="m196.01 393.2v47.8h-27v-47.8c0-3.29-.21-6.52-.62-9.7h27c.41 3.18.62 6.41.62 9.7z" fill="#a8d3d8"/><circle cx="120.32" cy="281.667" fill="#08a9f1" r="12.5"/><g><g><path d="m102.765 426.918c-4.143 0-7.5-3.357-7.5-7.5 0-3.77-3.066-6.836-6.836-6.836s-6.836 3.066-6.836 6.836c0 4.143-3.357 7.5-7.5 7.5s-7.5-3.357-7.5-7.5c0-12.04 9.796-21.836 21.836-21.836s21.836 9.796 21.836 21.836c0 4.143-3.358 7.5-7.5 7.5z" fill="#62dbfb"/></g></g><g><g><path d="m166.537 426.918c-4.143 0-7.5-3.357-7.5-7.5 0-3.77-3.066-6.836-6.836-6.836s-6.836 3.066-6.836 6.836c0 4.143-3.357 7.5-7.5 7.5s-7.5-3.357-7.5-7.5c0-12.04 9.796-21.836 21.836-21.836s21.836 9.796 21.836 21.836c0 4.143-3.357 7.5-7.5 7.5z" fill="#62dbfb"/></g></g></g></svg>